<?xml version="1.0"?>
<svg xmlns="http://www.w3.org/2000/svg" xmlns:xlink="http://www.w3.org/1999/xlink" xmlns:svgjs="http://svgjs.com/svgjs" version="1.1" width="512" height="512" x="0" y="0" viewBox="0 0 60 60" style="enable-background:new 0 0 512 512" xml:space="preserve" class=""><g><g xmlns="http://www.w3.org/2000/svg" id="Page-1" fill="none" fill-rule="evenodd"><g id="021---Medicated-Pet-Food" fill="rgb(0,0,0)" fill-rule="nonzero"><path id="Shape" d="m33 46h-1c-.5522847 0-1 .4477153-1 1s.4477153 1 1 1h1c.5522847 0 1-.4477153 1-1s-.4477153-1-1-1z" fill="#69ceac" data-original="#000000" style="" class=""/><path id="Shape" d="m45 46h-8c-.5522847 0-1 .4477153-1 1s.4477153 1 1 1h8c.5522847 0 1-.4477153 1-1s-.4477153-1-1-1z" fill="#69ceac" data-original="#000000" style="" class=""/><path id="Shape" d="m50 46h-1c-.5522847 0-1 .4477153-1 1s.4477153 1 1 1h1c.5522847 0 1-.4477153 1-1s-.4477153-1-1-1z" fill="#69ceac" data-original="#000000" style="" class=""/><path id="Shape" d="m3.02 60h55.98c.5522847 0 1-.4477153 1-1v-4c-.0054105-1.3608637-.9261601-2.5476168-2.243-2.891l-3.352-10.058c-.245773-.734452-.7660624-1.3453978-1.452-1.705.0226576-.1142754.0383532-.2298214.047-.346-.0001261-1.3069501-.8463504-2.4634298-2.092-2.859-.2418553-1.1169848-.9531237-2.0756667-1.952-2.631.124009-.7078823-.016195-1.4366581-.394-2.048-.862-9.121-2.062-17.716-3.562-25.553v-3.909c0-1.65685425-1.3431458-3-3-3h-34c-1.65685425 0-3 1.34314575-3 3v3.907c-3.02371663 16.5210671-4.68928393 33.2620252-4.98 50.055-.01561776.7987295.29239234 1.5698367.854 2.138.56412319.5779626 1.33836849.9026694 2.146.9zm54.98-2h-2v-1c0-.5522847-.4477153-1-1-1s-1 .4477153-1 1v1h-2v-1c0-.5522847-.4477153-1-1-1s-1 .4477153-1 1v1h-2v-1c0-.5522847-.4477153-1-1-1s-1 .4477153-1 1v1h-2v-1c0-.5522847-.4477153-1-1-1s-1 .4477153-1 1v1h-2v-1c0-.5522847-.4477153-1-1-1s-1 .4477153-1 1v1h-2v-1c0-.5522847-.4477153-1-1-1s-1 .4477153-1 1v1h-2v-1c0-.5522847-.4477153-1-1-1s-1 .4477153-1 1v1h-2v-1c0-.5522847-.4477153-1-1-1s-1 .4477153-1 1v1h-2v-3c0-.5522847.4477153-1 1-1h32c.5522847 0 1 .4477153 1 1zm-2.387-6h-29.226l3.106-9.316c.1359555-.4081936.5177607-.6836733.948-.684h21.118c.4302393.0003267.8120445.2758064.948.684zm-44.613-25c0-7.7319865 6.2680135-14 14-14s14 6.2680135 14 14c-.003016 1.7134618-.3237727 3.4115059-.946 5.008-.8998841-.0180812-1.760339.3688298-2.344 1.054-.2343903-.0414496-.471973-.0621963-.71-.062-2.209139 0-4 1.790861-4 4v.17c-1.1980469.4254767-1.998872 1.5586442-2 2.83.0066919.1173784.0203829.2342528.041.35-.056.029-.108.065-.162.1-4.2269236 1.2241051-8.7834714.3877186-12.3001037-2.2577708-3.5166323-2.6454893-5.5833228-6.7916273-5.5788963-11.1922292zm38 11c0 .5522847.4477153 1 1 1s1 .4477153 1 1h-20c.019766-.5510516.4696166-.9890061 1.021-.994.3524641.0585298.7093779-.0754375.9362787-.3514315.2269009-.275994.2893122-.6520784.1637213-.9865685-.0808171-.2134011-.1218283-.4398099-.121-.668 0-1.1045695.8954305-2 2-2 .259516-.0023209.5167722.0483817.756.149.507005.2169913 1.0939749-.0174387 1.312-.524.1150593-.2676706.3392927-.4732136.6159413-.5646013.2766486-.0913878.5791955-.0598606.8310587.0866013.3255248.1954805.7336779.1897329 1.0535692-.0148364.3198912-.2045693.4963253-.5726631.4554308-.9501636 0-.01-.023-.172-.024-.182.0043225-1.0130511.7654304-1.8628761 1.7718804-1.9784164 1.00645-.1155402 1.940339.5396995 2.1741196 1.5254164.0737975.3166699.296951.5776887.5982982.6998188.3013471.1221301.6432591.0901214.9167018-.0858188.3948761-.2468023.9078423-.1883839 1.2371131.1408869s.3876892.842237.1408869 1.2371131c-.1759402.2734427-.2079489.6153547-.0858188.9167018.1221301.3013472.3831489.5245007.6998188.5982982.9072444.2071585 1.5497746 1.0154091 1.547 1.946zm-42-35c0-.55228475.44771525-1 1-1h2v1c0 .55228475.4477153 1 1 1s1-.44771525 1-1v-1h2v1c0 .55228475.4477153 1 1 1s1-.44771525 1-1v-1h2v1c0 .55228475.4477153 1 1 1s1-.44771525 1-1v-1h2v1c0 .55228475.4477153 1 1 1s1-.44771525 1-1v-1h2v1c0 .55228475.4477153 1 1 1s1-.44771525 1-1v-1h2v1c0 .55228475.4477153 1 1 1s1-.44771525 1-1v-1h2v1c0 .55228475.4477153 1 1 1s1-.44771525 1-1v-1h2v1c0 .55228475.4477153 1 1 1s1-.44771525 1-1v-1h2c.5522847 0 1 .44771525 1 1v3h-36zm-.172 5h36.344c1.344 7.138 2.432 14.9 3.244 23.042-.3059625-.0577814-.6200375-.0577814-.926 0-.9100471-1.6507564-2.8592641-2.4290198-4.656-1.859.1045411-.7230859.1600013-1.4524207.166-2.183.0041945-6.6913163-4.1533912-12.6794769-10.424248-15.014019-6.2708568-2.33454217-13.3321516-.5229959-17.7046715 4.542061-4.37251993 5.065057-5.13388475 12.3151541-1.9089578 18.1780526 3.2249269 5.8628984 9.7558493 9.1018237 16.3748773 8.1209054l-3.094 9.282c-1.3168399.3433832-2.2375895 1.5301363-2.243 2.891v3h-18.98c-.27036743.0013101-.52974375-.1069137-.719-.3-.18436607-.1858037-.28572172-.4382911-.281-.7.28564804-16.4358633 1.89350431-32.8220857 4.808-49z" fill="#69ceac" data-original="#000000" style="" class=""/><path id="Shape" d="m21 31v4c0 2.209139 1.790861 4 4 4s4-1.790861 4-4v-4h4c2.209139 0 4-1.790861 4-4s-1.790861-4-4-4h-4v-4c0-2.209139-1.790861-4-4-4s-4 1.790861-4 4v4h-4c-2.209139 0-4 1.790861-4 4s1.790861 4 4 4zm1-2h-5c-1.1045695 0-2-.8954305-2-2s.8954305-2 2-2h5c.5522847 0 1-.4477153 1-1v-5c0-1.1045695.8954305-2 2-2s2 .8954305 2 2v5c0 .5522847.4477153 1 1 1h5c1.1045695 0 2 .8954305 2 2s-.8954305 2-2 2h-5c-.5522847 0-1 .4477153-1 1v5c0 1.1045695-.8954305 2-2 2s-2-.8954305-2-2v-5c0-.5522847-.4477153-1-1-1z" fill="#69ceac" data-original="#000000" style="" class=""/></g></g></g></svg>
