<?xml version="1.0"?>
<svg xmlns="http://www.w3.org/2000/svg" xmlns:xlink="http://www.w3.org/1999/xlink" xmlns:svgjs="http://svgjs.com/svgjs" version="1.1" width="512" height="512" x="0" y="0" viewBox="0 0 512.00013 512" style="enable-background:new 0 0 512 512" xml:space="preserve" class=""><g><path xmlns="http://www.w3.org/2000/svg" d="m66.777344 349.039062c4.144531 0 7.5-3.355468 7.5-7.5v-10.664062c0-4.140625-3.355469-7.5-7.5-7.5-4.140625 0-7.496094 3.359375-7.496094 7.5v10.664062c0 4.144532 3.355469 7.5 7.496094 7.5zm0 0" fill="#69ceac" data-original="#000000" style=""/><path xmlns="http://www.w3.org/2000/svg" d="m192.144531 341.539062v-10.664062c0-4.140625-3.355469-7.5-7.5-7.5-4.140625 0-7.496093 3.359375-7.496093 7.5v10.664062c0 4.144532 3.355468 7.5 7.496093 7.5 4.144531 0 7.5-3.355468 7.5-7.5zm0 0" fill="#69ceac" data-original="#000000" style=""/><path xmlns="http://www.w3.org/2000/svg" d="m115.917969 359.882812c3.480469 0 6.835937-.855468 9.792969-2.433593 2.957031 1.578125 6.316406 2.433593 9.796874 2.433593 5.980469 0 11.609376-2.515624 15.4375-6.898437 2.726563-3.117187 2.410157-7.855469-.710937-10.582031-3.117187-2.722656-7.855469-2.40625-10.582031.710937-.980469 1.125-2.492188 1.769531-4.144532 1.769531-1.652343 0-3.167968-.644531-4.148437-1.769531-1.410156-1.601562-3.519531-2.558593-5.652344-2.554687-2.140625 0-4.230469.941406-5.640625 2.554687-.984375 1.125-2.496094 1.769531-4.148437 1.769531-1.652344 0-3.164063-.644531-4.148438-1.769531-2.726562-3.121093-7.464843-3.4375-10.582031-.710937-3.117188 2.726562-3.4375 7.464844-.710938 10.582031 3.832032 4.382813 9.460938 6.898437 15.441407 6.898437zm0 0" fill="#69ceac" data-original="#000000" style=""/><path xmlns="http://www.w3.org/2000/svg" d="m341.578125 200.042969c-3.121094-2.726563-7.855469-2.410157-10.582031.710937-2.417969 2.765625-6.054688 4.347656-9.980469 4.347656s-7.566406-1.582031-9.980469-4.347656c-1.402344-1.601562-3.515625-2.554687-5.640625-2.558594-2.140625-.003906-4.242187.945313-5.652343 2.558594-2.417969 2.765625-6.054688 4.347656-9.980469 4.347656s-7.566407-1.582031-9.980469-4.347656c-2.726562-3.121094-7.464844-3.4375-10.582031-.710937-3.121094 2.726562-3.4375 7.460937-.710938 10.582031 5.265625 6.023438 13.019531 9.476562 21.273438 9.476562 5.65625 0 11.078125-1.625 15.625-4.585937 4.546875 2.960937 9.96875 4.585937 15.628906 4.585937 8.253906 0 16.007813-3.453124 21.273437-9.476562 2.726563-3.121094 2.40625-7.855469-.710937-10.582031zm0 0" fill="#69ceac" data-original="#000000" style=""/><path xmlns="http://www.w3.org/2000/svg" d="m289.253906 183.121094c4.902344 2.113281 10.371094 3.292968 16.132813 3.292968 5.765625 0 11.230469-1.175781 16.136719-3.292968 5.144531-2.214844 3.578124-9.894532-2.027344-9.894532h-28.214844c-5.605469.003907-7.175781 7.679688-2.027344 9.894532zm0 0" fill="#69ceac" data-original="#000000" style=""/><path xmlns="http://www.w3.org/2000/svg" d="m223.996094 140.554688c-4.140625 0-7.5 3.359374-7.5 7.5v14.464843c0 4.140625 3.359375 7.496094 7.5 7.496094s7.5-3.355469 7.5-7.496094v-14.464843c0-4.140626-3.359375-7.5-7.5-7.5zm0 0" fill="#69ceac" data-original="#000000" style=""/><path xmlns="http://www.w3.org/2000/svg" d="m386.777344 140.554688c-4.140625 0-7.5 3.359374-7.5 7.5v14.464843c0 4.140625 3.359375 7.496094 7.5 7.496094s7.5-3.355469 7.5-7.496094v-14.464843c0-4.140626-3.359375-7.5-7.5-7.5zm0 0" fill="#69ceac" data-original="#000000" style=""/><path xmlns="http://www.w3.org/2000/svg" d="m498.667969 91.644531c0-18.234375-3.015625-33.640625-8.960938-45.796875-1.824219-3.71875-6.316406-5.257812-10.035156-3.4375-3.71875 1.820313-5.257813 6.3125-3.4375 10.03125 4.933594 10.082032 7.4375 23.273438 7.4375 39.203125 0 39.210938 6.515625 61.660157 11.980469 73.585938 3.085937 6.730469.640625 14.550781-5.679688 18.1875-17.976562 10.355469-37.796875 7.925781-52.878906 3.078125.578125-3.519532 1.007812-7.066406 1.300781-10.636719.304688-3.707031.46875-7.421875.46875-11.140625 0-15.78125 1.34375-32.292969-1.0625-47.945312-2.46875-19.726563-9.285156-38.640626-20.105469-55.453126-4.609374-7.15625-9.871093-13.804687-15.679687-19.90625 22.796875-11.425781 42.804687-13.953124 57.007813-7.035156 3.722656 1.816406 8.210937.265625 10.023437-3.457031 1.816406-3.722656.265625-8.210937-3.457031-10.023437-19.585938-9.542969-46.136719-6.082032-75.1875 9.675781-8.394532-6.941407-17.640625-12.863281-27.582032-17.609375-17.992187-8.601563-37.3125-12.964844-57.429687-12.964844-20.121094 0-39.441406 4.363281-57.449219 12.972656-9.925781 4.734375-19.167968 10.65625-27.566406 17.601563-18.316406-9.96875-35.328125-15.027344-50.625-15.027344-17.714844 0-32.386719 6.953125-42.433594 20.105469-10.09375 13.214844-15.207031 32.054687-15.207031 55.992187 0 36.503907-5.777344 56.769531-10.621094 67.339844-6.328125 13.8125-1.242187 29.90625 11.832031 37.433594 10.699219 6.160156 22.703126 9.285156 35.679688 9.289062 8.9375 0 18.316406-1.523437 27.96875-4.515625 1.21875 4.296875 2.652344 8.542969 4.308594 12.726563 2.96875 7.480469 6.644531 14.710937 10.960937 21.585937-5.917969 3.332032-10.476562 6.785156-13.507812 9.34375-16.0625-8.179687-34.234375-12.796875-53.464844-12.796875-19.226563 0-37.398437 4.617188-53.464844 12.796875-7.425781-6.273437-24.085937-17.941406-47.148437-19.914062-9.171875-.789063-17.867188 5.300781-20.390625 14.132812-4.621094 16.195313-9.417969 46.945313 8.484375 74.898438-3.707032 11.449218-5.714844 23.65625-5.714844 36.324218 0 25.253907 7.859375 49.355469 22.726562 69.699219 2.445313 3.34375 7.136719 4.070313 10.480469 1.628907 3.34375-2.445313 4.070313-7.136719 1.628907-10.480469-12.980469-17.757813-19.839844-38.796875-19.839844-60.847657 0-12.9375 2.457031-25.898437 7.21875-37.929687 15.148437-38.214844 52.476562-65.308594 96.019531-65.308594s80.871094 27.09375 96.019531 65.308594c4.773438 12.042969 7.21875 24.976563 7.21875 37.929687 0 56.925782-46.3125 103.238282-103.238281 103.238282-23.558594 0-45.742187-7.730469-64.15625-22.355469-3.242187-2.578125-7.957031-2.035156-10.535156 1.207031-2.578125 3.242188-2.035157 7.960938 1.207031 10.535156 21.09375 16.753907 46.503906 25.609376 73.484375 25.609376 65.199219 0 118.238281-53.039063 118.238281-118.234376 0-12.667968-2.011718-24.871093-5.714844-36.320312 5.976563-9.335938 9.421876-18.980469 11.183594-28.289062 17.589844 8.203124 36.878906 12.515624 56.417969 12.515624 35.648437 0 69.164063-13.886718 94.375-39.097656 12.976563-12.976562 22.980469-28.175781 29.734375-45.179687 1.660156-4.179688 3.09375-8.425781 4.3125-12.722657 10.328125 3.207032 19.644531 4.5 27.945312 4.5 15.382813 0 27.285157-4.425781 35.703126-9.273437 13.070312-7.527344 18.160156-23.621094 11.828124-37.433594-4.84375-10.578125-10.621093-30.839843-10.621093-67.34375zm-479.984375 151.535157c.578125-2.03125 2.570312-3.480469 4.691406-3.304688 15.347656 1.3125 27.425781 8.070312 34.566406 13.203125-15.917968 11.039063-28.875 25.792969-37.734375 42.921875-8.410156-20.238281-4.886719-41.042969-1.523437-52.820312zm405.179687-78.460938c0 12.984375-2.121093 25.988281-6.320312 38.28125-.238281-.035156-.484375-.066406-.722657-.101562-22.929687-3.316407-46.441406-13.019532-60.597656-32.144532-12.410156-16.769531-15.878906-38.550781-15.429687-59.050781.449219-20.519531 5.054687-43.753906 12.976562-65.417969 2.125-5.8125 4.496094-11.636718 7.867188-16.851562.042969-.066406.085937-.121094.128906-.183594 8.164063 4.421875 15.746094 9.785156 22.625 15.945312.03125.027344.054687.058594.085937.085938 21.097657 18.933594 34.609376 44.746094 38.335938 72.503906 2.039062 15.199219 1.050781 31.421875 1.050781 46.933594zm-153.847656-48.324219c-.167969 20.066407-4.339844 36.796875-12.4375 49.890625-10.117187 16.351563-27.125 26.929688-45.207031 32.519532-1.9375.597656-18.773438 5.269531-19.140625 4.195312-4.195313-12.296875-6.316407-25.292969-6.316407-38.28125 0-15.578125-.992187-31.449219 1.050782-46.933594 3.722656-27.757812 17.238281-53.570312 38.335937-72.503906.03125-.027344.058594-.0625.09375-.09375 6.875-6.15625 14.453125-11.515625 22.621094-15.9375.039063.0625.082031.121094.125.183594 3.390625 5.214844 5.738281 11.03125 7.867187 16.851562 8.160157 22.320313 13.207032 46.273438 13.007813 70.109375zm-121.019531 74.3125c-10.3125 0-19.800782-2.453125-28.195313-7.289062-6.320312-3.636719-8.761719-11.457031-5.679687-18.1875 5.46875-11.925781 11.984375-34.375 11.984375-73.585938 0-22.820312 5.539062-61.101562 42.640625-61.101562 11.40625 0 24.753906 3.738281 39.011718 10.875-5.808593 6.097656-11.070312 12.746093-15.675781 19.902343-10.820312 16.808594-17.632812 35.71875-20.105469 55.4375-1.925781 15.359376-1.0625 31.175782-1.0625 46.632813 0 7.621094.515626 15.488281 1.769532 23.113281-8.625 2.789063-16.90625 4.203125-24.6875 4.203125zm78.160156 49.167969c1.992188-.164062 3.816406 1.054688 4.535156 2.902344.394532 1.003906.921875 3.265625.941406 3.339844 1.757813 6.996093 3.371094 16.734374 2.714844 27.496093-.003906.121094.007813.242188.003906.363281-.46875 7.101563-1.945312 14.597657-5.027343 22.023438-8.863281-17.125-21.820313-31.882812-37.738281-42.921875 5.757812-4.132813 14.710937-9.316406 25.996093-11.863281.785157-.179688 6.488281-1.128906 8.574219-1.339844zm162.003906 8.613281c-22.378906 22.378907-52.128906 34.703125-83.773437 34.703125-19.132813 0-38.007813-4.640625-54.863281-13.457031.097656-9.988281-1.351563-19.027344-3.070313-26.152344-.015625-.074219-.035156-.144531-.050781-.214843-1.570313-6.449219-3.957032-12.125-9.890625-15.703126-9.359375-5.644531-21.824219-1.8125-31.332031 1.523438-.054688.019531-.105469.035156-.15625.050781-2.519532-3.863281-4.804688-7.859375-6.84375-11.964843.316406-.050782.621093-.113282.933593-.167969 10.265625-1.773438 20.371094-4.65625 29.890625-8.921875 14.9375-6.699219 28.59375-16.863282 37.96875-30.417969 25.535156-36.921875 18.585938-94.316406 3.121094-136.632813-2.296875-6.273437-4.878906-12.5-8.347656-18.230468 13.542968-5.25 27.847656-7.902344 42.640625-7.902344s29.097656 2.652344 42.640625 7.902344c-.070313.117187-.136719.238281-.207032.359375-3.363281 5.632812-5.894531 11.722656-8.140624 17.875-7.980469 21.839843-13.695313 47.695312-13.84375 72.679687-.132813 21.863282 3.996093 43.0625 14.59375 60.316406 8.753906 14.25 22.011718 25.136719 36.933593 32.449219 9.265625 4.542969 20.558594 8.417969 34.238281 10.691407-5.707031 11.539062-13.230468 22.007812-22.441406 31.214843zm0 0" fill="#69ceac" data-original="#000000" style=""/></g></svg>
