<?xml version="1.0"?>
<svg xmlns="http://www.w3.org/2000/svg" xmlns:xlink="http://www.w3.org/1999/xlink" xmlns:svgjs="http://svgjs.com/svgjs" version="1.1" width="512" height="512" x="0" y="0" viewBox="0 0 512 512" style="enable-background:new 0 0 512 512" xml:space="preserve" class=""><g><g xmlns="http://www.w3.org/2000/svg"><path d="m206.858 127.895v-13.78c0-4.135-3.352-7.487-7.487-7.487s-7.487 3.352-7.487 7.487v13.78c0 4.135 3.352 7.487 7.487 7.487s7.487-3.352 7.487-7.487z" fill="#22cf9e" data-original="#000000" style=""/><path d="m312.629 106.628c-4.135 0-7.487 3.352-7.487 7.487v13.78c0 4.135 3.352 7.487 7.487 7.487s7.487-3.352 7.487-7.487v-13.78c-.001-4.135-3.352-7.487-7.487-7.487z" fill="#22cf9e" data-original="#000000" style=""/><g><path d="m223.99 228.504v5.774c0 10.829 8.81 19.639 19.64 19.639 4.686 0 8.99-1.655 12.37-4.404 3.38 2.749 7.684 4.404 12.37 4.404 10.83 0 19.639-8.81 19.639-19.639v-5.774c0-4.135-3.352-7.487-7.487-7.487s-7.487 3.352-7.487 7.487v5.774c0 2.573-2.093 4.666-4.666 4.666s-4.667-2.093-4.667-4.666c0 0 0-5.773 0-5.774 0-2.235-1.083-4.336-2.813-5.73-3.038-2.448-7.595-2.362-10.394.428-1.401 1.397-2.201 3.323-2.201 5.302v5.774c0 2.573-2.093 4.666-4.666 4.666s-4.666-2.093-4.666-4.666v-5.774c0-4.135-3.352-7.487-7.487-7.487s-7.485 3.352-7.485 7.487z" fill="#22cf9e" data-original="#000000" style=""/><path d="m380.681 225.008c7.433 5.906 15.43 10.329 23.771 13.071 5.519 1.815 10.783 2.726 15.725 2.726 2.083 0 4.111-.162 6.073-.487 12.14-2.006 23.342-10.625 29.965-23.055 4.86-9.122 7.454-20.036 8.165-34.349 2.18-43.841-13.23-91.79-44.565-138.663-2.299-3.437-6.949-4.36-10.385-2.063-3.437 2.298-4.361 6.947-2.064 10.385 29.535 44.179 44.078 88.993 42.058 129.597-.598 12.033-2.639 20.946-6.424 28.052-4.445 8.343-11.62 14.072-19.191 15.323-4.215.696-9.153.127-14.681-1.69-8.946-2.941-16.508-8.007-22.666-13.541 7.974-25.316 8.093-54.926.276-85.981-7.416-29.459-21.515-58.162-39.703-80.822-4.061-5.06-8.909-9.862-14.296-14.31 1.877-3.382 4.244-6.276 7.211-8.424 4.015-2.906 9.107-4.453 15.133-4.595 11.335-.257 22.801 6.854 30.433 12.877 3.246 2.56 7.954 2.006 10.516-1.24 2.561-3.246 2.005-7.954-1.241-10.515-13.717-10.822-27.576-16.39-40.06-16.091-9.115.215-17.041 2.717-23.559 7.435-4.471 3.236-7.947 7.233-10.654 11.654-20.018-12.842-44.27-20.907-64.518-20.267-20.238-.64-44.506 7.432-64.534 20.281-2.87-4.71-6.416-8.614-10.637-11.669-6.519-4.718-14.445-7.219-23.559-7.435-24.568-.587-50.955 21.903-65.085 43.039-31.335 46.872-46.746 94.821-44.566 138.663.712 14.316 3.307 25.231 8.166 34.35 6.623 12.429 17.824 21.048 29.964 23.055 1.964.324 3.99.487 6.074.487 4.941 0 10.207-.911 15.725-2.725 8.34-2.742 16.34-7.159 23.775-13.062 9.867 20.64 26.036 37.934 47.328 50.423 1.999 1.172 4.038 2.273 6.094 3.34-12.5 12.974-25.341 32.367-33.348 60.951-11.769-4.65-21.609-3.275-28.334-.866-14.638 5.243-26.49 19.339-32.517 38.672-10.799 34.639-8.42 60.86-4.961 75.962h-3.96c-17.557 0-31.84 14.283-31.84 31.84v10c0 9.188 7.474 16.662 16.662 16.662h379.107c9.188 0 16.662-7.474 16.662-16.662v-10c0-17.557-14.284-31.84-31.84-31.84h-3.961c2.684-11.718 4.713-30.133.445-53.976 19.676-17.203 31.503-39.642 32.523-62.929.492-11.241.416-23.836-3.44-39.745-1.276-5.266-5.587-9.019-10.981-9.562-5.392-.539-10.361 2.274-12.659 7.177-5.475 11.678-11.018 21.428-16.944 29.807-4.218 5.964-10.232 13.034-17.977 18.807-2.689-1.736-5.508-3.161-8.446-4.214-6.723-2.408-16.563-3.784-28.334.866-8.004-28.575-20.84-47.969-33.336-60.943 2.05-1.061 4.079-2.173 6.083-3.348 21.295-12.491 37.466-29.789 47.332-50.433zm-255.145-14.699c-6.157 5.536-13.715 10.604-22.664 13.546-5.529 1.818-10.468 2.384-14.68 1.69-7.572-1.252-14.746-6.98-19.191-15.323-3.785-7.103-5.827-16.017-6.426-28.052-2.019-40.605 12.524-85.419 42.059-129.597 11.873-17.76 33.916-36.399 51.69-36.399.197 0 .396.002.593.007 6.026.142 11.117 1.688 15.133 4.595 2.967 2.148 5.345 5.033 7.223 8.416-5.393 4.451-10.245 9.256-14.309 14.319-18.187 22.659-32.287 51.363-39.702 80.822-7.817 31.053-7.699 60.661.274 85.976zm10.882-18.407c-.547-3.077-.97-6.216-1.288-9.404-.003.002-.007.004-.011.007-1.695-16.936-.156-35.369 4.663-54.518 6.901-27.415 19.991-54.088 36.859-75.104 13.773-17.159 38.675-31.326 61.388-36.141 2.101 55.334 3.088 92.258-24.341 129.71-18.163 24.809-49.762 43.285-77.218 45.721-.017-.091-.036-.18-.052-.271zm291.166 141.016c5.333-7.54 10.349-16.033 15.239-25.818 1.881 10.294 2.025 19.162 1.601 28.84-.733 16.753-8.452 33.1-21.477 46.648-.469-1.665-.96-3.344-1.492-5.05-2.963-9.503-7.339-17.732-12.756-24.274 8.09-6.5 14.374-13.967 18.885-20.346zm-63.498 21.601c6.943-3.251 13.585-3.785 19.801-1.557 10.024 3.59 18.724 14.443 23.272 29.031 8.656 27.765 9.504 56.347 2.268 76.458-.825 2.294-.481 4.846.92 6.84 1.402 1.995 3.687 3.181 6.125 3.181h13.903c9.3 0 16.866 7.566 16.866 16.866v10c0 .931-.757 1.688-1.688 1.688h-49.267v-11.693c0-17.554-14.281-31.835-31.835-31.835h-3.351c4.257-20.427 5.785-40.149 6.293-53.843.578-15.574-.538-30.706-3.307-45.136zm-31.79-44.082c5.712 9.792 10.981 21.903 14.818 36.772 4.201 16.278 5.989 33.737 5.315 51.892-.559 15.055-2.396 37.697-7.981 60.071-.559 2.236-.056 4.605 1.363 6.422s3.596 2.878 5.901 2.878h12.74c9.297 0 16.861 7.564 16.861 16.861v11.693h-11.573-62.726v-72.708c0-4.135-3.352-7.487-7.487-7.487s-7.487 3.352-7.487 7.487v72.708h-72.081v-72.708c0-4.135-3.352-7.487-7.487-7.487s-7.487 3.352-7.487 7.487v72.708h-74.298v-11.693c0-9.297 7.564-16.861 16.862-16.861h12.74c2.305 0 4.481-1.062 5.9-2.878s1.922-4.186 1.364-6.422c-3.07-12.295-5.324-25.923-6.701-40.505-.389-4.117-4.05-7.136-8.157-6.75-4.117.388-7.139 4.041-6.75 8.157 1.11 11.764 2.771 22.964 4.954 33.425h-3.35c-17.554 0-31.835 14.281-31.835 31.835v11.693h-49.268c-.931 0-1.688-.757-1.688-1.688v-10c0-9.3 7.566-16.866 16.866-16.866h13.902c2.438 0 4.723-1.187 6.125-3.181s1.745-4.546.92-6.84c-7.235-20.109-6.386-48.692 2.27-76.458 4.548-14.588 13.247-25.441 23.271-29.031 6.22-2.229 12.863-1.693 19.809 1.563-1.822 9.517-2.943 19.372-3.318 29.437-.154 4.132 3.071 7.606 7.203 7.76 4.157.177 7.606-3.072 7.76-7.203.482-12.946 2.271-25.499 5.319-37.309 3.833-14.855 9.096-26.957 14.805-36.743 10.821 4.123 21.702 7.964 32.985 10.689 14.202 3.43 29.994 5.39 43.388 5.39h.306c14.881-.04 30.13-2.005 45.317-5.835 10.294-2.588 20.56-6.044 30.61-10.275zm-76.296-103.017c8.773 0 16.651-3.207 22.016-8.27 3.124 1.294 5.996 2.871 8.485 4.736 6.582 4.925 11.813 11.391 16.292 18.23 8.614 13.155 14.419 27.168 22.587 40.629.557.918-22.634 10.146-24.791 10.813-14.201 4.396-29.566 6.353-44.36 6.55-12.047.161-24.025-.983-35.883-3.88-11.797-2.882-23.224-7.376-33.728-13.484 3.172-5.215 6.01-10.494 8.648-15.54 6.943-13.28 13.677-27.289 24.328-38.107 4.473-4.545 9.256-7.925 14.243-10.086 5.37 5.144 13.31 8.409 22.163 8.409zm-14.275-24.127c0-4.876 6.671-9.154 14.275-9.154s14.275 4.278 14.275 9.154-6.671 9.153-14.275 9.153c-7.604.001-14.275-4.277-14.275-9.153zm82.049 114.475c-8.478 3.428-17.103 6.25-25.742 8.421-14.012 3.534-28.043 5.345-41.699 5.382-.094 0-.185 0-.278 0-12.254 0-26.766-1.809-39.867-4.973-9.067-2.187-18.27-5.108-27.331-8.674-.116-.046-.316-.122-.581-.223 3.843-4.96 7.669-9.034 11.206-12.331 6.064 2.305 12.277 4.22 18.588 5.702 7.124 1.673 14.372 2.82 21.666 3.426 24.598 2.044 49.689-.48 72.757-9.149 3.561 3.316 7.413 7.418 11.281 12.419zm-28.3-105.869c-3.112-2.331-6.623-4.325-10.4-5.989.113-.86.175-1.732.175-2.616 0-13.304-13.122-24.128-29.249-24.128-16.128 0-29.249 10.824-29.249 24.128 0 .819.051 1.629.148 2.427-6.391 2.928-12.426 7.235-17.975 12.874-11.06 11.232-18.259 25.047-25.221 38.408 0 0-6.715 12.684-9.546 17.378-15.495-11.952-26.835-27.256-33.124-44.898-.309-.867-.585-1.754-.873-2.635 31.237-3.587 65.276-23.777 85.608-51.549 30.685-41.898 29.348-83.285 27.178-140.316 16.358-.2 31.748 3.503 46.501 10.634 7.035 3.401 13.773 7.449 20.017 12.151 5.835 4.394 11.321 9.417 15.894 15.115 16.868 21.016 29.957 47.689 36.858 75.104 7.527 29.904 7.095 58.083-1.251 81.495-6.289 17.641-17.628 32.944-33.122 44.896-2.831-4.695-9.16-16.638-9.821-17.91-8.055-15.504-17.185-33.077-32.548-44.569z" fill="#22cf9e" data-original="#000000" style=""/></g></g></g></svg>
