<?xml version="1.0"?>
<svg xmlns="http://www.w3.org/2000/svg" xmlns:xlink="http://www.w3.org/1999/xlink" xmlns:svgjs="http://svgjs.com/svgjs" version="1.1" width="512" height="512" x="0" y="0" viewBox="0 0 512 512" style="enable-background:new 0 0 512 512" xml:space="preserve" class=""><g>
<g xmlns="http://www.w3.org/2000/svg">
	<g>
		<path d="M408.297,111.551c4.151,0,7.515-3.365,7.515-7.515v-80.49C415.812,10.563,405.25,0,392.266,0H119.734    C106.75,0,96.188,10.563,96.188,23.546v464.908c0,12.983,10.563,23.546,23.546,23.546h272.532    c12.983,0,23.546-10.563,23.546-23.546V140.107c0-4.15-3.364-7.515-7.515-7.515c-4.151,0-7.515,3.365-7.515,7.515v292.739H111.217    V79.155h289.566v24.882C400.783,108.186,404.146,111.551,408.297,111.551z M400.783,447.875v40.579    c0,4.696-3.82,8.517-8.517,8.517H119.734c-4.696,0-8.517-3.82-8.517-8.517v-40.579H400.783z M111.217,64.125V23.546    c0-4.696,3.82-8.517,8.517-8.517h272.532c4.696,0,8.517,3.82,8.517,8.517v40.579H111.217z" fill="#69ceac" data-original="#000000" style="" class=""/>
	</g>
</g>
<g xmlns="http://www.w3.org/2000/svg">
	<g>
		<path d="M272.031,464.908h-32.063c-4.151,0-7.515,3.365-7.515,7.515c0,4.15,3.364,7.515,7.515,7.515h32.063    c4.151,0,7.515-3.365,7.515-7.515C279.546,468.273,276.182,464.908,272.031,464.908z" fill="#69ceac" data-original="#000000" style="" class=""/>
	</g>
</g>
<g xmlns="http://www.w3.org/2000/svg">
	<g>
		<path d="M272.031,32.063h-32.063c-4.151,0-7.515,3.365-7.515,7.515c0,4.15,3.364,7.515,7.515,7.515h32.063    c4.151,0,7.515-3.365,7.515-7.515C279.546,35.427,276.182,32.063,272.031,32.063z" fill="#69ceac" data-original="#000000" style="" class=""/>
	</g>
</g>
<g xmlns="http://www.w3.org/2000/svg">
	<g>
		<path d="M312.11,32.063h-8.016c-4.151,0-7.515,3.365-7.515,7.515c0,4.15,3.364,7.515,7.515,7.515h8.016    c4.151,0,7.515-3.365,7.515-7.515C319.624,35.427,316.261,32.063,312.11,32.063z" fill="#69ceac" data-original="#000000" style="" class=""/>
	</g>
</g>
<g xmlns="http://www.w3.org/2000/svg">
	<g>
		<path d="M207.906,32.063h-8.016c-4.151,0-7.515,3.365-7.515,7.515c0,4.15,3.364,7.515,7.515,7.515h8.016    c4.151,0,7.515-3.365,7.515-7.515C215.421,35.427,212.057,32.063,207.906,32.063z" fill="#69ceac" data-original="#000000" style="" class=""/>
	</g>
</g>
<g xmlns="http://www.w3.org/2000/svg">
	<g>
		<path d="M256,230.45c-33.977,0-61.62,27.643-61.62,61.62c0,31.056,23.035,49.597,61.62,49.597s61.62-18.541,61.62-49.597    C317.62,258.093,289.977,230.45,256,230.45z M256,326.638c-17.4,0-46.591-4.491-46.591-34.568c0-25.69,20.9-46.591,46.591-46.591    s46.591,20.901,46.591,46.591C302.591,322.147,273.4,326.638,256,326.638z" fill="#69ceac" data-original="#000000" style="" class=""/>
	</g>
</g>
<g xmlns="http://www.w3.org/2000/svg">
	<g>
		<path d="M225.941,170.333c-15.359,0-25.55,18.996-25.55,31.562c0,14.089,11.461,25.55,25.55,25.55s25.55-11.461,25.55-25.55    C251.491,189.329,241.3,170.333,225.941,170.333z M225.941,212.415c-5.801,0-10.521-4.719-10.521-10.521    c0-7.107,5.998-16.532,10.521-16.532s10.521,9.425,10.521,16.532C236.462,207.696,231.743,212.415,225.941,212.415z" fill="#69ceac" data-original="#000000" style="" class=""/>
	</g>
</g>
<g xmlns="http://www.w3.org/2000/svg">
	<g>
		<path d="M286.059,170.333c-15.359,0-25.55,18.996-25.55,31.562c0,14.089,11.461,25.55,25.55,25.55s25.55-11.461,25.55-25.55    C311.609,189.329,301.418,170.333,286.059,170.333z M286.059,212.415c-5.801,0-10.521-4.719-10.521-10.521    c0-7.107,5.998-16.532,10.521-16.532s10.521,9.425,10.521,16.532C296.579,207.696,291.86,212.415,286.059,212.415z" fill="#69ceac" data-original="#000000" style="" class=""/>
	</g>
</g>
<g xmlns="http://www.w3.org/2000/svg">
	<g>
		<path d="M334.153,206.403c-15.359,0-25.55,18.996-25.55,31.562c0,14.089,11.461,25.55,25.55,25.55s25.55-11.461,25.55-25.55    C359.703,225.399,349.512,206.403,334.153,206.403z M334.153,248.485c-5.801,0-10.521-4.719-10.521-10.521    c0-7.107,5.998-16.532,10.521-16.532s10.521,9.425,10.521,16.532C344.673,243.766,339.954,248.485,334.153,248.485z" fill="#69ceac" data-original="#000000" style="" class=""/>
	</g>
</g>
<g xmlns="http://www.w3.org/2000/svg">
	<g>
		<path d="M177.847,206.403c-15.359,0-25.55,18.996-25.55,31.562c0,14.089,11.461,25.55,25.55,25.55s25.55-11.461,25.55-25.55    C203.397,225.399,193.206,206.403,177.847,206.403z M177.847,248.485c-5.801,0-10.521-4.719-10.521-10.521    c0-7.107,5.998-16.532,10.521-16.532s10.521,9.425,10.521,16.532C188.368,243.766,183.649,248.485,177.847,248.485z" fill="#69ceac" data-original="#000000" style="" class=""/>
	</g>
</g>
<g xmlns="http://www.w3.org/2000/svg">
	<g>
		<path d="M272.031,280.548h-8.517v-8.517c0-4.15-3.364-7.515-7.515-7.515s-7.515,3.365-7.515,7.515v8.517h-8.517    c-4.151,0-7.515,3.365-7.515,7.515s3.364,7.515,7.515,7.515h8.517v8.517c0,4.15,3.364,7.515,7.515,7.515s7.515-3.365,7.515-7.515    v-8.517h8.517c4.151,0,7.515-3.365,7.515-7.515S276.182,280.548,272.031,280.548z" fill="#69ceac" data-original="#000000" style="" class=""/>
	</g>
</g>
<g xmlns="http://www.w3.org/2000/svg">
</g>
<g xmlns="http://www.w3.org/2000/svg">
</g>
<g xmlns="http://www.w3.org/2000/svg">
</g>
<g xmlns="http://www.w3.org/2000/svg">
</g>
<g xmlns="http://www.w3.org/2000/svg">
</g>
<g xmlns="http://www.w3.org/2000/svg">
</g>
<g xmlns="http://www.w3.org/2000/svg">
</g>
<g xmlns="http://www.w3.org/2000/svg">
</g>
<g xmlns="http://www.w3.org/2000/svg">
</g>
<g xmlns="http://www.w3.org/2000/svg">
</g>
<g xmlns="http://www.w3.org/2000/svg">
</g>
<g xmlns="http://www.w3.org/2000/svg">
</g>
<g xmlns="http://www.w3.org/2000/svg">
</g>
<g xmlns="http://www.w3.org/2000/svg">
</g>
<g xmlns="http://www.w3.org/2000/svg">
</g>
</g></svg>
