<?xml version="1.0"?>
<svg xmlns="http://www.w3.org/2000/svg" xmlns:xlink="http://www.w3.org/1999/xlink" xmlns:svgjs="http://svgjs.com/svgjs" version="1.1" width="512" height="512" x="0" y="0" viewBox="0 0 512 512" style="enable-background:new 0 0 512 512" xml:space="preserve" class=""><g>
<g xmlns="http://www.w3.org/2000/svg">
	<g>
		<path d="M143.608,223.744c-4.142,0-7.5,3.358-7.5,7.5v20.099c0,4.142,3.358,7.5,7.5,7.5c4.142,0,7.5-3.358,7.5-7.5v-20.099    C151.108,227.102,147.75,223.744,143.608,223.744z" fill="#22cf9e" data-original="#000000" style="" class=""/>
	</g>
</g>
<g xmlns="http://www.w3.org/2000/svg">
	<g>
		<path d="M157.296,273.385h-27.375c-4.142,0-7.5,3.358-7.5,7.5c0,4.142,3.358,7.5,7.5,7.5h27.375c4.142,0,7.5-3.358,7.5-7.5    C164.796,276.743,161.438,273.385,157.296,273.385z" fill="#22cf9e" data-original="#000000" style="" class=""/>
	</g>
</g>
<g xmlns="http://www.w3.org/2000/svg">
	<g>
		<path d="M350.344,223.744c-4.142,0-7.5,3.358-7.5,7.5v20.099c0,4.142,3.358,7.5,7.5,7.5c4.142,0,7.5-3.358,7.5-7.5v-20.099    C357.844,227.102,354.486,223.744,350.344,223.744z" fill="#22cf9e" data-original="#000000" style="" class=""/>
	</g>
</g>
<g xmlns="http://www.w3.org/2000/svg">
	<g>
		<path d="M364.032,273.385h-27.375c-4.142,0-7.5,3.358-7.5,7.5c0,4.142,3.358,7.5,7.5,7.5h27.375c4.142,0,7.5-3.358,7.5-7.5    C371.532,276.743,368.174,273.385,364.032,273.385z" fill="#22cf9e" data-original="#000000" style="" class=""/>
	</g>
</g>
<g xmlns="http://www.w3.org/2000/svg">
	<g>
		<path d="M270.401,265.924c-3.119-2.727-7.857-2.409-10.583,0.71c-3.12,3.569-7.801,5.616-12.842,5.616    c-5.042,0-9.722-2.047-12.841-5.616c-2.727-3.12-7.464-3.437-10.583-0.711c-3.119,2.726-3.438,7.464-0.711,10.583    c5.968,6.828,14.765,10.745,24.135,10.745c9.37,0,18.166-3.916,24.135-10.744C273.837,273.388,273.519,268.65,270.401,265.924z" fill="#22cf9e" data-original="#000000" style="" class=""/>
	</g>
</g>
<g xmlns="http://www.w3.org/2000/svg">
	<g>
		<circle cx="246.975" cy="63.48" r="13.496" fill="#22cf9e" data-original="#000000" style="" class=""/>
	</g>
</g>
<g xmlns="http://www.w3.org/2000/svg">
	<g>
		<path d="M177.537,425.988h-11.876v-11.875c0-4.142-3.358-7.5-7.5-7.5H132.92c-4.142,0-7.5,3.358-7.5,7.5v11.875h-11.875    c-4.142,0-7.5,3.358-7.5,7.5v25.241c0,4.142,3.358,7.5,7.5,7.5h11.875v11.875c0,4.142,3.358,7.5,7.5,7.5h25.241    c4.142,0,7.5-3.358,7.5-7.5v-11.875h11.876c4.142,0,7.5-3.358,7.5-7.5v-25.241C185.037,429.346,181.679,425.988,177.537,425.988z     M170.037,451.229L170.037,451.229h-11.876c-4.142,0-7.5,3.358-7.5,7.5v11.875H140.42v-11.875c0-4.142-3.358-7.5-7.5-7.5h-11.875    v-10.241h11.875c4.142,0,7.5-3.358,7.5-7.5v-11.875h10.241v11.875c0,4.142,3.358,7.5,7.5,7.5h11.876V451.229z" fill="#22cf9e" data-original="#000000" style="" class=""/>
	</g>
</g>
<g xmlns="http://www.w3.org/2000/svg">
	<g>
		<path d="M503.02,170.77c-0.096-3.745-2.521-6.782-6.226-7.199c-1.298-0.339-12.505-3.988-11.766-28.365    c0.3-9.915,2.314-19.943,4.262-29.641c4.465-22.237,9.083-45.231-5.292-69.69C472.974,17.117,454.926,4.8,434.484,2.083    c-16.831-2.238-42.781,1.034-72.489,28.187C327.36,10.456,287.706,0,246.976,0c-42.403,0-83.645,11.327-119.266,32.755    c-14.256,8.577-27.604,18.77-39.673,30.295c-6.574,6.277-12.805,12.999-18.521,19.98c-5.888,7.183-11.351,14.793-16.236,22.616    c-2.194,3.513-1.125,8.14,2.389,10.334c3.515,2.195,8.141,1.125,10.334-2.389c3.931-6.294,8.264-12.441,12.908-18.313h141.418    c5.278,4.436,11.5,7.438,18.169,8.82c12.349,2.559,25.468-0.703,35.124-8.82h141.417c0.012,0.016,0.025,0.031,0.038,0.047    c1.131,1.431,2.235,2.878,3.324,4.335c14.568,19.483,25.558,41.654,32.123,65.083c1.578,5.631,2.887,11.339,3.937,17.091    c0.033,0.181,0.067,0.363,0.099,0.544c-2.787-1.176-5.709-2.106-8.751-2.769c-2.011-0.438-4.18-0.933-6.247-0.933h-1.249    c-2.911-8.44-6.8-16.547-11.537-24.113c-12.621-20.215-31.051-36.066-52.852-45.517c-0.045-0.02-0.09-0.039-0.136-0.059    c-13.549-5.9-28.184-8.907-42.906-9.713c-30.139-1.647-56.873,5.497-79.719,21.296c-0.475,0.328-4.059,3.16-4.218,3.04    c-2.682-2.025-5.452-3.938-8.291-5.737c-21.863-13.866-47.125-20.104-75.377-18.604c-18.688,0.999-37.222,5.784-53.555,15.047    c-17.402,9.869-32.153,24.152-42.624,41.193c-0.06,0.098-0.123,0.194-0.183,0.292c-4.394,7.197-8.01,14.851-10.792,22.875    c-1.569,0-3.044,0.097-4.6,0.31c-2.059,0.302-4.102,0.74-6.107,1.296c-0.752,0.209-5.91,1.386-6.04,2.101    c2.616-14.441,6.85-28.534,12.65-42.062c1.632-3.807-0.131-8.216-3.938-9.848c-3.805-1.632-8.216,0.13-9.848,3.938    c-8.16,19.034-13.436,39.103-15.713,59.692c-8.436,8.961-13.551,21.026-13.551,34.238c0,27.516,22.386,49.902,49.903,49.902    c0.284,0,0.57-0.011,0.855-0.016c9.66,27.204,25.784,52.124,47.635,73.003c1.026,0.98,2.065,1.944,3.11,2.9    c-15.996,19.958-34.604,50.732-41.75,91.605c-3.341,19.149-3.93,39.189-1.749,59.563c0.408,3.811,3.625,6.702,7.458,6.702h345.17    c3.833,0,7.049-2.891,7.458-6.702c2.18-20.373,1.592-40.413-1.75-59.565c-7.15-40.901-25.781-71.692-41.793-91.657    c1.024-0.939,2.044-1.884,3.051-2.845c21.85-20.878,37.972-45.795,47.632-73.004c0.286,0.005,0.573,0.016,0.858,0.016    c27.517,0,49.903-22.386,49.903-49.902c0-6.11-1.103-11.971-3.111-17.398c8.332-4.303,14.497-11.694,18.048-21.782    C503.218,179.744,503.029,171.132,503.02,170.77z M23.981,228.34c0-9.775,4-18.654,10.52-25.012    c4.071-3.97,9.246-6.984,14.714-8.534c0.075-0.021,1.846-0.482,2.67-0.649c-1.564,7.579-2.657,15.38-2.671,23.131    c0.011,5.853,0.303,11.707,0.874,17.532c0.929,9.581,2.596,19.011,4.987,28.227C37.614,261.131,23.981,246.298,23.981,228.34z     M410.544,448.314c2.735,15.674,3.479,32.022,2.222,48.686H81.288c-1.257-16.664-0.513-33.012,2.222-48.684    c6.57-37.583,23.647-65.971,38.412-84.473c17.132,13.454,36.283,23.909,56.738,31.113c6.962,18.452,24.085,49.196,64.683,71.445    c2.238,1.226,4.968,1.227,7.208,0c40.584-22.242,57.709-52.975,64.673-71.422c20.505-7.213,39.7-17.694,56.867-31.186    C386.872,382.303,403.97,410.708,410.544,448.314z M197.556,400.589c9.976,2.451,20.194,4.161,30.583,5.097    c0.092,0.009,0.183,0.014,0.275,0.023c22.716,2.011,45.761,0.332,67.916-5.103c-7.868,15.304-22.503,34.918-49.382,50.602    C220.061,435.519,205.424,415.898,197.556,400.589z M421.781,268.01c-0.069,0.216-0.122,0.436-0.171,0.655    c-8.656,26.789-24.061,51.336-45.394,71.721c-30.394,29.041-70.626,46.72-112.428,50.413c-0.069,0.006-0.138,0.013-0.207,0.019    c-11.049,0.937-22.161,0.959-33.209,0c-0.063-0.005-0.125-0.011-0.188-0.017c-70.821-6.363-135.688-53.635-157.837-122.104    c-0.05-0.23-0.106-0.46-0.179-0.687c-11.43-35.713-11.772-75.194,9.465-107.413c20.502-31.103,57.78-47.837,94.527-46.444    c0.081,0.003,0.163,0.006,0.244,0.009c21.603,0.862,40.999,7.17,57.844,18.794c0.16,0.11,0.319,0.219,0.478,0.33    c2.551,1.783,5.031,3.67,7.423,5.66c2.779,2.312,6.813,2.312,9.593-0.001c2.394-1.991,4.875-3.879,7.427-5.662    c0.16-0.112,0.321-0.221,0.481-0.332c16.859-11.632,36.274-17.942,57.902-18.798c0.061-0.002,0.122-0.004,0.183-0.007    c48.027-1.721,94.099,27.101,107.874,74.139C433.138,213.994,429.837,242.82,421.781,268.01z M205.7,67.729    c0.441,4.375,1.56,8.599,3.311,12.551H91.998v-0.001c2.087-2.174,4.223-4.303,6.398-6.381    c10.772-10.287,22.633-19.436,35.282-27.216h75.334c-1.751,3.951-2.87,8.176-3.312,12.552    C205.416,62.048,205.444,64.913,205.7,67.729z M273.428,64.867c-0.634,11.169-8.848,21.52-19.798,24.258    c-0.018,0.004-0.035,0.01-0.052,0.014c-4.319,1.112-8.879,1.064-13.203,0c-0.016-0.004-0.031-0.009-0.047-0.013    c-11.45-2.863-19.842-13.796-19.842-25.645c0-6.967,2.816-13.75,7.731-18.685c0.016-0.016,0.031-0.033,0.047-0.049    c10.146-10.148,27.287-10.127,37.425,0c0.016,0.016,0.031,0.032,0.047,0.048C270.906,50.046,273.847,57.487,273.428,64.867z     M255.431,22.859c-5.57-1.15-11.349-1.149-16.918,0.002c-6.677,1.381-12.905,4.383-18.186,8.822h-57.344    C189.279,20.711,217.827,15,246.976,15s57.697,5.711,83.994,16.682h-57.342C268.345,27.241,262.113,24.238,255.431,22.859z     M284.94,80.279c1.752-3.952,2.87-8.176,3.311-12.551c0.013-0.125,0.018-0.253,0.03-0.379c0.253-2.723-0.03-5.392-0.03-8.115    c-0.441-4.376-1.56-8.6-3.312-12.552h75.29c1.13,0.695,2.257,1.394,3.374,2.11c13.402,8.592,25.91,18.69,37.005,30.115    c0.441,0.454,0.874,0.916,1.313,1.372H284.94z M438.875,263.036c2.386-9.201,4.053-18.616,4.983-28.183    c1.318-13.548,1.292-27.207-1.346-40.601c0.675,0.146,1.348,0.299,2.01,0.483c0.09,0.025,0.18,0.051,0.269,0.076    c14.707,4.259,25.18,18.118,25.18,33.528C469.972,246.299,456.336,261.133,438.875,263.036z M474.556,197.773    c-0.985-1.274-2.031-2.498-3.135-3.669c-0.789-7.14-1.942-14.233-3.458-21.254c-7.065-32.725-21.879-63.409-43.532-89.826    c-5.714-6.979-11.944-13.699-18.516-19.974c-9.343-8.92-19.466-17.038-30.186-24.243c-0.146-0.098-0.289-0.2-0.436-0.298    c19.269-16.558,38.909-23.991,57.213-21.557c15.835,2.105,29.889,11.772,38.558,26.523c11.473,19.521,7.786,37.879,3.518,59.137    c-2.07,10.306-4.209,20.963-4.548,32.14c-0.805,26.564,10.202,37.088,17.687,41.162    C486.936,182.203,484.155,192.971,474.556,197.773z" fill="#22cf9e" data-original="#000000" style="" class=""/>
	</g>
</g>
<g xmlns="http://www.w3.org/2000/svg">
</g>
<g xmlns="http://www.w3.org/2000/svg">
</g>
<g xmlns="http://www.w3.org/2000/svg">
</g>
<g xmlns="http://www.w3.org/2000/svg">
</g>
<g xmlns="http://www.w3.org/2000/svg">
</g>
<g xmlns="http://www.w3.org/2000/svg">
</g>
<g xmlns="http://www.w3.org/2000/svg">
</g>
<g xmlns="http://www.w3.org/2000/svg">
</g>
<g xmlns="http://www.w3.org/2000/svg">
</g>
<g xmlns="http://www.w3.org/2000/svg">
</g>
<g xmlns="http://www.w3.org/2000/svg">
</g>
<g xmlns="http://www.w3.org/2000/svg">
</g>
<g xmlns="http://www.w3.org/2000/svg">
</g>
<g xmlns="http://www.w3.org/2000/svg">
</g>
<g xmlns="http://www.w3.org/2000/svg">
</g>
</g></svg>
